<svg width="150" height="25" viewBox="0 0 150 25" fill="none" xmlns="http://www.w3.org/2000/svg">
<path d="M75.8909 7.31242C76.4379 7.31242 76.9625 7.04194 77.3493 6.56048C77.736 6.07902 77.9533 5.42602 77.9533 4.74514V2.5857C77.9405 1.91561 77.7176 1.27835 77.3323 0.810087C76.9471 0.34182 76.4299 0.0796814 75.8915 0.0796814C75.353 0.0796814 74.8359 0.34182 74.4506 0.810087C74.0653 1.27835 73.8424 1.91561 73.8296 2.5857V4.74514C73.8296 5.42577 74.0467 6.07855 74.4333 6.55996C74.8198 7.04138 75.3441 7.31203 75.8909 7.31242Z" fill="#61DE00"/>
<path d="M84.2859 9.87076H67.4955C67.2206 9.8626 66.9471 9.92294 66.6912 10.0483C66.4353 10.1736 66.2021 10.3613 66.0054 10.6004C65.8086 10.8396 65.6523 11.1253 65.5455 11.4407C65.4388 11.7562 65.3838 12.095 65.3838 12.4373C65.3838 12.7796 65.4388 13.1185 65.5455 13.4339C65.6523 13.7494 65.8086 14.0351 66.0054 14.2742C66.2021 14.5133 66.4353 14.7011 66.6912 14.8264C66.9471 14.9517 67.2206 15.012 67.4955 15.0039H71.9337C72.4363 15.0039 72.9182 15.2524 73.2736 15.6948C73.629 16.1372 73.8286 16.7371 73.8287 17.3627V22.3456C73.8302 23.026 74.0479 23.6779 74.4344 24.159C74.8209 24.64 75.3446 24.9111 75.8911 24.9129C76.4377 24.9111 76.9614 24.64 77.3479 24.159C77.7344 23.6779 77.9521 23.026 77.9536 22.3456V17.3627C77.9536 16.7371 78.1533 16.1371 78.5086 15.6947C78.864 15.2524 79.346 15.0039 79.8486 15.0039H84.2868C84.5617 15.012 84.8352 14.9517 85.0911 14.8264C85.347 14.7011 85.5802 14.5133 85.7769 14.2742C85.9737 14.0351 86.13 13.7494 86.2368 13.4339C86.3435 13.1185 86.3985 12.7796 86.3985 12.4373C86.3985 12.095 86.3435 11.7562 86.2368 11.4407C86.13 11.1253 85.9737 10.8396 85.7769 10.6004C85.5802 10.3613 85.347 10.1736 85.0911 10.0483C84.8352 9.92294 84.5617 9.8626 84.2868 9.87076H84.2859Z" fill="#61DE00"/>
<path d="M116.908 0.000587463C114.932 0.000587463 113.001 0.729901 111.358 2.0963C109.715 3.4627 108.435 5.40482 107.678 7.67706C106.922 9.94931 106.724 12.4496 107.11 14.8618C107.495 17.274 108.447 19.4898 109.844 21.2289C111.241 22.968 113.021 24.1523 114.959 24.6321C116.897 25.1119 118.906 24.8657 120.731 23.9245C122.556 22.9833 124.117 21.3894 125.214 19.3445C126.312 17.2995 126.898 14.8953 126.898 12.4358C126.898 9.13779 125.846 5.97484 123.972 3.64278C122.099 1.31072 119.558 0.000587463 116.908 0.000587463ZM116.908 19.5314C115.781 19.5314 114.679 19.1153 113.741 18.3357C112.804 17.5561 112.073 16.448 111.642 15.1516C111.211 13.8552 111.098 12.4286 111.318 11.0523C111.538 9.67603 112.08 8.41182 112.878 7.41958C113.675 6.42733 114.69 5.7516 115.796 5.47784C116.902 5.20408 118.048 5.34458 119.089 5.88158C120.131 6.41858 121.021 7.32796 121.647 8.49472C122.274 9.66148 122.608 11.0332 122.608 12.4365C122.606 14.3175 122.005 16.1209 120.937 17.451C119.868 18.7811 118.419 19.5293 116.908 19.5314Z" fill="#61DE00"/>
<path d="M140.01 0.000587463C138.034 0.000587463 136.103 0.729901 134.46 2.0963C132.817 3.4627 131.537 5.40482 130.78 7.67706C130.024 9.94931 129.827 12.4496 130.212 14.8618C130.597 17.274 131.549 19.4898 132.946 21.2289C134.343 22.968 136.123 24.1523 138.061 24.6321C139.999 25.1119 142.008 24.8657 143.833 23.9245C145.659 22.9833 147.219 21.3894 148.316 19.3445C149.414 17.2995 150 14.8953 150 12.4358C150 9.13779 148.948 5.97484 147.074 3.64278C145.201 1.31072 142.66 0.000587463 140.01 0.000587463ZM140.01 19.5314C138.883 19.5314 137.781 19.1153 136.843 18.3357C135.906 17.5561 135.175 16.448 134.744 15.1516C134.313 13.8552 134.2 12.4286 134.42 11.0523C134.64 9.67603 135.183 8.41182 135.98 7.41958C136.777 6.42733 137.792 5.7516 138.898 5.47784C140.004 5.20408 141.15 5.34458 142.191 5.88158C143.233 6.41858 144.123 7.32796 144.749 8.49472C145.376 9.66148 145.71 11.0332 145.71 12.4365C145.708 14.3175 145.107 16.1209 144.039 17.451C142.97 18.7811 141.521 19.5293 140.01 19.5314Z" fill="#61DE00"/>
<path d="M19.9823 2.32783C19.9142 1.86429 19.7552 1.42883 19.5195 1.06007C19.2837 0.691322 18.9786 0.400669 18.631 0.213888C18.1185 -0.0509817 17.5455 -0.0705237 17.0222 0.159025C16.4989 0.388573 16.0622 0.850983 15.7964 1.45723L12.2719 9.49933C12.2015 9.66007 12.0975 9.79423 11.971 9.88769C11.8445 9.98116 11.7001 10.0305 11.553 10.0305C11.4059 10.0305 11.2615 9.98116 11.135 9.88769C11.0085 9.79423 10.9046 9.66007 10.8341 9.49933L7.31001 1.45723C7.08914 0.953415 6.74901 0.546463 6.33583 0.291679C5.92266 0.0368955 5.45649 -0.053364 5.00066 0.0331667C4.54484 0.119697 4.12147 0.378822 3.78809 0.775326C3.45471 1.17183 3.22749 1.68649 3.13731 2.24935L0.0456964 21.5604C-0.1971 23.0765 0.549565 24.6151 1.76433 24.9373C2.05517 25.0148 2.3555 25.0196 2.64783 24.9513C2.94016 24.883 3.21865 24.743 3.46711 24.5394C3.71556 24.3359 3.92901 24.0729 4.09504 23.7657C4.26106 23.4585 4.37635 23.1132 4.43418 22.7501L5.95884 13.2269C5.98652 13.0533 6.05653 12.8944 6.15933 12.7721C6.26213 12.6497 6.39273 12.5698 6.53335 12.5432C6.67396 12.5165 6.81775 12.5445 6.94514 12.6232C7.07253 12.7019 7.17733 12.8277 7.24527 12.9832L9.58186 18.3162C9.59191 18.3391 9.60392 18.3599 9.61449 18.3824C9.63825 18.4335 9.6624 18.4842 9.68877 18.5334C9.70548 18.5644 9.72349 18.5938 9.74098 18.6237C9.76644 18.6675 9.79215 18.7108 9.8193 18.7528C9.84084 18.7853 9.86356 18.8165 9.88627 18.8476C9.91238 18.8836 9.93848 18.9191 9.9655 18.9534C9.99253 18.9877 10.0211 19.0184 10.0494 19.0509C10.0755 19.0795 10.1001 19.1081 10.1267 19.1354C10.16 19.1694 10.1945 19.2004 10.2292 19.2329C10.2537 19.2552 10.2776 19.2779 10.3031 19.2989C10.3422 19.3314 10.3824 19.3611 10.423 19.3905C10.4414 19.4038 10.4584 19.4191 10.4773 19.4319C10.4832 19.436 10.4895 19.4388 10.4955 19.4428C10.5346 19.469 10.5756 19.4916 10.6162 19.5151C10.6447 19.5314 10.6727 19.5491 10.7015 19.5639C10.7331 19.5801 10.7654 19.5928 10.7975 19.6071C10.8367 19.6243 10.8743 19.6427 10.9133 19.657C10.9328 19.6643 10.9525 19.6692 10.9726 19.6758C11.0238 19.6929 11.0749 19.71 11.1265 19.7223C11.136 19.7246 11.1457 19.7256 11.1552 19.7277C11.2168 19.7415 11.2783 19.7535 11.3402 19.7602C11.3554 19.7621 11.371 19.7616 11.3863 19.7631C11.442 19.7683 11.4976 19.773 11.5532 19.7728C11.596 19.7728 11.6388 19.7685 11.6818 19.7654C11.71 19.7633 11.7383 19.7634 11.7664 19.76C11.8207 19.7537 11.8747 19.7425 11.9288 19.7311C11.9457 19.7273 11.9628 19.7256 11.9797 19.7215C12.0271 19.7101 12.0742 19.694 12.1214 19.6786C12.1452 19.671 12.1692 19.665 12.1928 19.6562C12.2295 19.6425 12.2657 19.6251 12.302 19.6091C12.3362 19.5941 12.3706 19.5801 12.4042 19.5629C12.432 19.5488 12.459 19.5317 12.4864 19.516C12.5281 19.4924 12.5694 19.4688 12.6099 19.442C12.6158 19.4381 12.6219 19.4354 12.6277 19.4315C12.6462 19.4188 12.6629 19.4038 12.681 19.3907C12.722 19.3611 12.7626 19.3312 12.8022 19.2982C12.8272 19.2774 12.851 19.255 12.8753 19.2332C12.9103 19.2007 12.9449 19.1697 12.9783 19.1357C13.0044 19.1086 13.0298 19.0802 13.0552 19.0517C13.0837 19.0192 13.1122 18.9879 13.1395 18.9542C13.1668 18.9206 13.1929 18.8842 13.2188 18.8483C13.2413 18.8171 13.264 18.7864 13.2856 18.7537C13.3134 18.7116 13.3391 18.6681 13.3647 18.6237C13.3821 18.5938 13.4 18.5646 13.4169 18.5337C13.443 18.485 13.4675 18.4335 13.4913 18.3824C13.5018 18.36 13.5139 18.3392 13.524 18.3163L15.8631 12.9783C15.931 12.8233 16.0356 12.6981 16.1627 12.6197C16.2898 12.5413 16.4332 12.5135 16.5734 12.5402C16.7136 12.5668 16.8438 12.6465 16.9464 12.7685C17.0489 12.8905 17.1187 13.0489 17.1464 13.2221L18.672 22.7514C18.7884 23.4783 19.132 24.118 19.6273 24.5295C20.1225 24.9411 20.7288 25.091 21.3129 24.9461C21.8969 24.8012 22.4107 24.3735 22.7414 23.757C23.072 23.1405 23.1924 22.3858 23.076 21.6588L19.9823 2.32783Z" fill="#61DE00"/>
<path d="M105.915 2.26674C105.839 1.64609 105.589 1.0788 105.21 0.665273C104.871 0.305333 104.45 0.0847689 104.006 0.0337793C103.562 -0.0172103 103.116 0.103867 102.73 0.380435C102.546 0.507756 102.377 0.66635 102.228 0.851645L98.0379 6.06745L97.3395 6.93676C97.0051 7.353 96.5516 7.58684 96.0787 7.58684C95.6058 7.58684 95.1523 7.353 94.8179 6.93676L94.1198 6.06745L89.9296 0.851645C89.7807 0.666423 89.6118 0.507838 89.4279 0.380435C89.0413 0.103867 88.5955 -0.0172103 88.1516 0.0337793C87.7076 0.0847689 87.2871 0.305333 86.9477 0.665273C86.5683 1.07881 86.3186 1.64609 86.2428 2.26674C86.2334 2.34246 86.2273 2.41834 86.2232 2.49422C86.2214 2.52672 86.2178 2.55921 86.2168 2.59285C86.2145 2.72397 86.2199 2.85512 86.233 2.98525C86.2876 3.58192 86.503 4.13796 86.8441 4.56267L90.2922 8.85458L92.5914 11.7166C93.5018 12.8501 94.0133 14.3872 94.0134 15.99V22.2758C94.0134 22.9576 94.2309 23.6114 94.6183 24.0935C95.0056 24.5756 95.5308 24.8465 96.0786 24.8465C96.6263 24.8465 97.1516 24.5756 97.5389 24.0935C97.9262 23.6114 98.1438 22.9576 98.1438 22.2758V15.9903C98.144 14.3876 98.6554 12.8505 99.5657 11.7169L101.865 8.85491L105.314 4.56316C105.655 4.13853 105.87 3.58245 105.925 2.98574C105.938 2.85561 105.943 2.72445 105.941 2.59334C105.941 2.56084 105.936 2.52753 105.935 2.49471C105.93 2.41834 105.924 2.34246 105.915 2.26674Z" fill="#61DE00"/>
<path d="M61.5999 0.000587463H51.4928C50.9505 0.000587463 50.4134 0.133561 49.9123 0.391915C49.4112 0.65027 48.956 1.02895 48.5724 1.50632C48.1889 1.9837 47.8847 2.55043 47.6772 3.17415C47.4696 3.79787 47.3628 4.46638 47.3628 5.14149V19.7302C47.3628 20.4053 47.4696 21.0738 47.6772 21.6975C47.8847 22.3212 48.1889 22.8879 48.5724 23.3653C48.956 23.8427 49.4112 24.2214 49.9123 24.4797C50.4134 24.7381 50.9505 24.8711 51.4928 24.8711H61.5999C62.1448 24.8657 62.6659 24.5924 63.0497 24.1109C63.4335 23.6294 63.6489 22.9786 63.6489 22.3003C63.6489 21.622 63.4335 20.9712 63.0497 20.4897C62.6659 20.0081 62.1448 19.7349 61.5999 19.7295H53.3788C52.8782 19.7227 52.4 19.4699 52.0485 19.0262C51.6969 18.5824 51.5006 17.9837 51.5022 17.3605C51.5038 16.7373 51.7032 16.1402 52.057 15.6992C52.4108 15.2583 52.8903 15.0093 53.3909 15.0065H59.0324C59.5802 15.0065 60.1055 14.7357 60.4928 14.2536C60.8801 13.7715 61.0976 13.1176 61.0976 12.4358C61.0976 11.754 60.8801 11.1002 60.4928 10.6181C60.1055 10.136 59.5802 9.86513 59.0324 9.86513H53.3911C52.8904 9.86235 52.4109 9.61336 52.0571 9.17241C51.7034 8.73147 51.5039 8.13433 51.5023 7.51113C51.5007 6.88794 51.6971 6.28922 52.0486 5.84546C52.4001 5.40171 52.8783 5.1489 53.3789 5.14214H61.5999C62.1472 5.14013 62.6715 4.86864 63.0585 4.38698C63.4454 3.90531 63.6635 3.25262 63.6651 2.57144C63.6636 1.89025 63.4455 1.23751 63.0585 0.75581C62.6716 0.274112 62.1472 0.00260229 61.5999 0.000587463Z" fill="#61DE00"/>
<path d="M41.1486 0.000587463H31.0416C29.9463 0.000587463 28.8958 0.542217 28.1213 1.50632C27.3467 2.47043 26.9116 3.77804 26.9116 5.14149V19.7302C26.9116 20.4053 27.0184 21.0738 27.226 21.6975C27.4336 22.3212 27.7378 22.8879 28.1213 23.3653C28.8958 24.3294 29.9463 24.8711 31.0416 24.8711H41.1489C41.6938 24.8657 42.2149 24.5924 42.5987 24.1109C42.9825 23.6294 43.1978 22.9786 43.1978 22.3003C43.1978 21.622 42.9825 20.9712 42.5987 20.4897C42.2149 20.0081 41.6938 19.7349 41.1489 19.7295H32.9278C32.4271 19.7227 31.9489 19.4699 31.5974 19.0262C31.2459 18.5824 31.0495 17.9837 31.0511 17.3605C31.0527 16.7373 31.2522 16.1402 31.606 15.6992C31.9598 15.2583 32.4392 15.0093 32.9399 15.0065H38.5813C39.129 15.0065 39.6543 14.7357 40.0416 14.2536C40.4289 13.7715 40.6465 13.1176 40.6465 12.4358C40.6465 11.754 40.4289 11.1002 40.0416 10.6181C39.6543 10.136 39.129 9.86513 38.5813 9.86513H32.9396C32.439 9.86235 31.9595 9.61336 31.6057 9.17241C31.2519 8.73147 31.0525 8.13433 31.0509 7.51113C31.0493 6.88794 31.2456 6.28922 31.5972 5.84546C31.9487 5.40171 32.4269 5.1489 32.9275 5.14214H41.1486C41.6959 5.14013 42.2202 4.86864 42.6072 4.38698C42.9941 3.90531 43.2122 3.25262 43.2138 2.57144C43.2123 1.89025 42.9942 1.23751 42.6072 0.75581C42.2203 0.274112 41.6959 0.00260229 41.1486 0.000587463Z" fill="#61DE00"/>
</svg>
